<?xml version="1.0" encoding="utf-8"?>
<svg xmlns="http://www.w3.org/2000/svg" viewBox="239.61 -100 688.632 731.033" xmlns:bx="https://boxy-svg.com" width="688.632px" height="731.033px"><defs><filter id="filter0_b_415_11747" x="50.0398" y="537.389" width="144.429" height="144.429" filterUnits="userSpaceOnUse" color-interpolation-filters="sRGB"><feFlood flood-opacity="0" result="BackgroundImageFix"/><feGaussianBlur in="BackgroundImageFix" stdDeviation="15.9435"/><feComposite in2="SourceAlpha" operator="in" result="effect1_backgroundBlur_415_11747"/><feBlend mode="normal" in="SourceGraphic" in2="effect1_backgroundBlur_415_11747" result="shape"/></filter><filter id="filter1_b_415_11747" x="262.587" y="33.4182" width="143.491" height="143.492" filterUnits="userSpaceOnUse" color-interpolation-filters="sRGB"><feFlood flood-opacity="0" result="BackgroundImageFix"/><feGaussianBlur in="BackgroundImageFix" stdDeviation="15.9435"/><feComposite in2="SourceAlpha" operator="in" result="effect1_backgroundBlur_415_11747"/><feBlend mode="normal" in="SourceGraphic" in2="effect1_backgroundBlur_415_11747" result="shape"/></filter><filter id="filter2_b_415_11747" x="98.2136" y="-7.15849" width="144.429" height="144.429" filterUnits="userSpaceOnUse" color-interpolation-filters="sRGB"><feFlood flood-opacity="0" result="BackgroundImageFix"/><feGaussianBlur in="BackgroundImageFix" stdDeviation="15.9435"/><feComposite in2="SourceAlpha" operator="in" result="effect1_backgroundBlur_415_11747"/><feBlend mode="normal" in="SourceGraphic" in2="effect1_backgroundBlur_415_11747" result="shape"/></filter><filter id="filter3_b_415_11747" x="155.816" y="52.4409" width="29.0839" height="25.3818" filterUnits="userSpaceOnUse" color-interpolation-filters="sRGB"><feFlood flood-opacity="0" result="BackgroundImageFix"/><feGaussianBlur in="BackgroundImageFix" stdDeviation="1.56517"/><feComposite in2="SourceAlpha" operator="in" result="effect1_backgroundBlur_415_11747"/><feBlend mode="normal" in="SourceGraphic" in2="effect1_backgroundBlur_415_11747" result="shape"/></filter><filter id="filter4_b_415_11747" x="382.2" y="300.273" width="145.005" height="145.006" filterUnits="userSpaceOnUse" color-interpolation-filters="sRGB"><feFlood flood-opacity="0" result="BackgroundImageFix"/><feGaussianBlur in="BackgroundImageFix" stdDeviation="15.9435"/><feComposite in2="SourceAlpha" operator="in" result="effect1_backgroundBlur_415_11747"/><feBlend mode="normal" in="SourceGraphic" in2="effect1_backgroundBlur_415_11747" result="shape"/></filter><filter id="filter5_b_415_11747" x="177.588" y="133.175" width="144.429" height="144.429" filterUnits="userSpaceOnUse" color-interpolation-filters="sRGB"><feFlood flood-opacity="0" result="BackgroundImageFix"/><feGaussianBlur in="BackgroundImageFix" stdDeviation="15.9435"/><feComposite in2="SourceAlpha" operator="in" result="effect1_backgroundBlur_415_11747"/><feBlend mode="normal" in="SourceGraphic" in2="effect1_backgroundBlur_415_11747" result="shape"/></filter><filter id="filter6_b_415_11747" x="327.796" y="183.97" width="144.429" height="144.429" filterUnits="userSpaceOnUse" color-interpolation-filters="sRGB"><feFlood flood-opacity="0" result="BackgroundImageFix"/><feGaussianBlur in="BackgroundImageFix" stdDeviation="15.9435"/><feComposite in2="SourceAlpha" operator="in" result="effect1_backgroundBlur_415_11747"/><feBlend mode="normal" in="SourceGraphic" in2="effect1_backgroundBlur_415_11747" result="shape"/></filter><filter id="filter7_b_415_11747" x="219.791" y="271.039" width="143.491" height="143.492" filterUnits="userSpaceOnUse" color-interpolation-filters="sRGB"><feFlood flood-opacity="0" result="BackgroundImageFix"/><feGaussianBlur in="BackgroundImageFix" stdDeviation="15.9435"/><feComposite in2="SourceAlpha" operator="in" result="effect1_backgroundBlur_415_11747"/><feBlend mode="normal" in="SourceGraphic" in2="effect1_backgroundBlur_415_11747" result="shape"/></filter><filter id="filter8_b_415_11747" x="249.802" y="407.966" width="144.429" height="144.429" filterUnits="userSpaceOnUse" color-interpolation-filters="sRGB"><feFlood flood-opacity="0" result="BackgroundImageFix"/><feGaussianBlur in="BackgroundImageFix" stdDeviation="15.9435"/><feComposite in2="SourceAlpha" operator="in" result="effect1_backgroundBlur_415_11747"/><feBlend mode="normal" in="SourceGraphic" in2="effect1_backgroundBlur_415_11747" result="shape"/></filter><filter id="filter9_b_415_11747" x="96.9314" y="383.582" width="144.429" height="144.429" filterUnits="userSpaceOnUse" color-interpolation-filters="sRGB"><feFlood flood-opacity="0" result="BackgroundImageFix"/><feGaussianBlur in="BackgroundImageFix" stdDeviation="15.9435"/><feComposite in2="SourceAlpha" operator="in" result="effect1_backgroundBlur_415_11747"/><feBlend mode="normal" in="SourceGraphic" in2="effect1_backgroundBlur_415_11747" result="shape"/></filter><filter id="filter10_b_415_11747" x="71.6101" y="221.333" width="144.429" height="144.429" filterUnits="userSpaceOnUse" color-interpolation-filters="sRGB"><feFlood flood-opacity="0" result="BackgroundImageFix"/><feGaussianBlur in="BackgroundImageFix" stdDeviation="15.9435"/><feComposite in2="SourceAlpha" operator="in" result="effect1_backgroundBlur_415_11747"/><feBlend mode="normal" in="SourceGraphic" in2="effect1_backgroundBlur_415_11747" result="shape"/></filter><filter id="filter11_b_415_11747" x="290.131" y="527.073" width="144.429" height="144.429" filterUnits="userSpaceOnUse" color-interpolation-filters="sRGB"><feFlood flood-opacity="0" result="BackgroundImageFix"/><feGaussianBlur in="BackgroundImageFix" stdDeviation="15.9435"/><feComposite in2="SourceAlpha" operator="in" result="effect1_backgroundBlur_415_11747"/><feBlend mode="normal" in="SourceGraphic" in2="effect1_backgroundBlur_415_11747" result="shape"/></filter><radialGradient id="paint0_radial_415_11747" cx="0" cy="0" r="1" gradientUnits="userSpaceOnUse" gradientTransform="matrix(0, 349.759003, -349.759003, 0, 593.600494, 241.111603)"><stop stop-color="white"/><stop offset="1" stop-color="white" stop-opacity="0"/></radialGradient><linearGradient id="paint1_linear_415_11747" x1="141.949" y1="-81.5932" x2="363.282" y2="699.638" gradientUnits="userSpaceOnUse"><stop offset="0.4169"/><stop offset="0.8808" stop-opacity="0.02"/></linearGradient><clipPath id="clip2_415_11747"><rect width="54.5493" height="54.5493" fill="white" transform="translate(294.818 452.982)"/></clipPath><linearGradient gradientUnits="userSpaceOnUse" x1="188.554" y1="-0.002" x2="188.554" y2="277.863" id="gradient-0"><stop offset="0" style="stop-color: rgb(96.471% 99.608% 98.431%)"/><stop offset="1" style="stop-color: rgb(53.914% 56.744% 55.689%)"/></linearGradient><linearGradient gradientUnits="userSpaceOnUse" x1="48.688" y1="355.637" x2="48.688" y2="373.817" id="gradient-1"><stop offset="0" style="stop-color: rgb(99.608% 99.216% 100% / 0.9)"/><stop offset="1" style="stop-color: rgb(56.567% 56.214% 56.92% / 0.9)"/></linearGradient><linearGradient gradientUnits="userSpaceOnUse" x1="32.607" y1="344.628" x2="32.607" y2="385.331" id="gradient-2"><stop offset="0" style="stop-color: rgb(99.608% 99.216% 100% / 0.9)"/><stop offset="1" style="stop-color: rgb(56.567% 56.214% 56.92% / 0.9)"/></linearGradient><linearGradient gradientUnits="userSpaceOnUse" x1="440.996" y1="270.885" x2="440.996" y2="385.066" id="gradient-3"><stop offset="0" style="stop-color: rgb(72.941% 85.49% 33.333%)"/><stop offset="1" style="stop-color: rgb(37.355% 50.439% 0%)"/></linearGradient><linearGradient gradientUnits="userSpaceOnUse" x1="430.21" y1="238.537" x2="430.21" y2="400.772" id="gradient-4"><stop offset="0" style="stop-color: rgb(72.941% 85.49% 33.333%)"/><stop offset="1" style="stop-color: rgb(37.355% 50.439% 0%)"/></linearGradient><linearGradient gradientUnits="userSpaceOnUse" x1="417.264" y1="222.827" x2="417.264" y2="319.192" id="gradient-5"><stop offset="0" style="stop-color: rgb(72.941% 85.49% 33.333%)"/><stop offset="1" style="stop-color: rgb(37.355% 50.439% 0%)"/></linearGradient><linearGradient gradientUnits="userSpaceOnUse" x1="435.586" y1="286.617" x2="435.586" y2="337.14" id="gradient-6"><stop offset="0" style="stop-color: rgb(72.941% 85.49% 33.333%)"/><stop offset="1" style="stop-color: rgb(37.355% 50.439% 0%)"/></linearGradient><bx:export><bx:file format="svg"/></bx:export></defs><path opacity="0.2" d="M 925.059 412.259 L 925.059 242.051 L 925.599 242.051 L 925.599 240.172 L 925.059 240.172 L 925.059 69.965 C 925.049 28.223 908.805 -11.879 879.763 -41.861 L 879.763 -44.949 L 925.059 -44.949 L 925.059 -46.841 L 881.075 -46.841 L 923.309 -89.306 L 922.022 -90.592 L 879.801 -48.127 L 879.801 -89.679 L 877.923 -89.679 L 877.923 -46.841 L 874.731 -46.841 C 845.181 -75.088 805.883 -90.864 765.004 -90.888 L 421.642 -90.888 C 380.78 -90.85 341.504 -75.076 311.967 -46.841 L 308.762 -46.841 L 308.762 -89.679 L 306.897 -89.679 L 306.897 -48.166 L 264.676 -90.631 L 263.389 -89.344 L 305.61 -46.879 L 264.277 -46.879 L 264.277 -45 L 306.897 -45 L 306.897 -41.861 C 277.85 -11.881 261.606 28.222 261.6 69.965 L 261.6 412.259 C 261.606 454.001 277.85 494.104 306.897 524.083 L 306.897 527.223 L 264.277 527.223 L 264.277 529.102 L 305.571 529.102 L 263.351 571.567 L 264.637 572.854 L 306.858 530.389 L 306.858 571.902 L 308.724 571.902 L 308.724 529.063 L 311.928 529.063 C 341.475 557.308 380.767 573.083 421.642 573.111 L 765.004 573.111 C 805.87 573.076 845.152 557.302 874.693 529.063 L 877.884 529.063 L 877.884 571.902 L 879.763 571.902 L 879.763 530.389 L 921.983 572.854 L 923.27 571.567 L 881.037 529.102 L 925.599 529.102 L 925.599 527.223 L 879.763 527.223 L 879.763 524.083 C 908.798 494.097 925.041 453.999 925.059 412.259 Z M 923.18 412.259 C 923.177 452.836 907.641 491.872 879.763 521.355 L 879.763 360.078 L 922.511 360.078 L 922.511 358.212 L 879.763 358.212 L 879.763 242.051 L 923.18 242.051 L 923.18 412.259 Z M 711.125 358.212 L 709.838 356.925 C 711.974 354.755 714.046 352.524 716.053 350.234 L 716.053 358.212 L 711.125 358.212 Z M 716.053 360.091 L 716.053 363.167 L 712.991 360.091 L 716.053 360.091 Z M 471.673 358.212 L 471.673 351.456 C 473.346 353.322 475.071 355.137 476.821 356.925 L 475.534 358.212 L 471.673 358.212 Z M 473.668 360.091 L 471.673 362.073 L 471.673 360.078 L 473.668 360.091 Z M 475.534 124.011 L 476.821 125.298 C 475.071 127.086 473.346 128.914 471.673 130.767 L 471.673 124.011 L 475.534 124.011 Z M 471.673 122.132 L 471.673 120.151 L 473.668 122.145 L 471.673 122.132 Z M 716.053 124.011 L 716.053 131.989 C 714.046 129.699 711.974 127.468 709.838 125.298 L 711.125 124.011 L 716.053 124.011 Z M 712.991 122.132 L 716.053 119.057 L 716.053 122.132 L 712.991 122.132 Z M 716.053 240.159 L 711.652 240.159 C 711.457 209.286 699.266 179.698 677.655 157.648 L 708.538 126.636 C 711.112 129.27 713.626 132.002 716.079 134.833 L 716.053 240.159 Z M 717.919 137.059 C 741.921 166.068 755.111 202.508 755.237 240.159 L 717.919 240.159 L 717.919 137.059 Z M 676.329 158.935 C 697.601 180.621 709.6 209.732 709.787 240.108 L 595.581 240.108 L 676.329 158.935 Z M 594.269 238.718 L 594.269 124.011 C 624.541 124.222 653.525 136.289 675.004 157.623 L 594.269 238.718 Z M 592.39 238.718 L 511.642 157.533 C 533.145 136.238 562.128 124.206 592.39 124.011 L 592.39 238.718 Z M 591.103 240.005 L 476.872 240.005 C 477.066 209.63 489.064 180.522 510.329 158.832 L 591.103 240.005 Z M 591.103 241.884 L 510.355 323.056 C 489.09 301.367 477.092 272.258 476.898 241.884 L 591.103 241.884 Z M 592.39 243.171 L 592.39 358.212 C 562.112 358 533.123 345.928 511.642 324.588 L 592.39 243.171 Z M 594.269 243.171 L 675.004 324.343 C 653.569 345.775 624.579 357.937 594.269 358.212 L 594.269 243.171 Z M 595.556 241.884 L 709.748 241.884 C 709.561 272.26 697.562 301.371 676.291 323.056 L 595.556 241.884 Z M 707.187 125.298 L 676.304 156.323 C 659.352 139.506 637.69 128.237 614.189 124.011 L 705.875 124.011 L 707.187 125.298 Z M 594.269 122.132 L 594.269 78.29 C 635.051 78.49 674.236 94.164 703.906 122.145 L 594.269 122.132 Z M 592.39 122.132 L 482.753 122.132 C 512.417 94.143 551.606 78.468 592.39 78.277 L 592.39 122.132 Z M 572.457 124.011 C 548.949 128.238 527.278 139.506 510.317 156.323 L 479.433 125.298 L 480.72 124.011 L 572.457 124.011 Z M 478.146 126.585 L 509.03 157.597 C 487.409 179.64 475.215 209.232 475.032 240.108 L 471.699 240.108 L 471.699 133.611 C 473.771 131.23 475.92 128.901 478.146 126.649 L 478.146 126.585 Z M 469.808 240.108 L 431.37 240.108 C 431.514 201.88 445.123 164.925 469.808 135.734 L 469.808 240.108 Z M 469.808 241.987 L 469.808 346.361 C 445.123 317.17 431.514 280.215 431.37 241.987 L 469.808 241.987 Z M 471.673 241.987 L 475.006 241.987 C 475.187 272.859 487.381 302.448 509.004 324.485 L 478.12 355.51 C 475.894 353.258 473.745 350.929 471.686 348.548 L 471.673 241.987 Z M 479.472 356.925 L 510.355 325.9 C 527.307 342.711 548.962 353.978 572.457 358.212 L 480.784 358.212 L 479.472 356.925 Z M 592.39 360.091 L 592.39 403.946 C 551.606 403.755 512.417 388.08 482.753 360.091 L 592.39 360.091 Z M 594.269 360.091 L 703.906 360.091 C 674.236 388.072 635.051 403.746 594.269 403.946 L 594.269 360.091 Z M 614.189 358.212 C 637.699 353.991 659.371 342.722 676.329 325.9 L 707.213 356.925 L 705.926 358.212 L 614.189 358.212 Z M 708.513 355.639 L 677.629 324.613 C 699.243 302.571 711.435 272.986 711.627 242.115 L 716.028 242.115 L 716.028 347.442 C 713.626 350.221 711.121 352.953 708.513 355.639 Z M 717.919 242.115 L 755.237 242.115 C 755.111 279.766 741.921 316.206 717.919 345.215 L 717.919 242.115 Z M 757.154 240.237 C 757.011 201.375 743.111 163.819 717.919 134.228 L 717.919 124.011 L 816.876 124.011 C 835.503 159.899 845.268 199.725 845.353 240.159 L 757.154 240.237 Z M 717.919 122.209 L 717.919 117.242 L 772.197 62.694 C 789.58 80.3 804.298 100.35 815.885 122.209 L 717.919 122.209 Z M 717.919 114.591 L 717.919 20.834 C 737.277 31.926 755.082 45.529 770.872 61.291 L 717.919 114.591 Z M 716.053 116.47 L 710.353 122.209 L 706.634 122.209 C 676.481 93.031 636.227 76.62 594.269 76.399 L 594.269 -12.238 C 636.932 -12.144 678.86 -1.122 716.053 19.779 L 716.053 116.47 Z M 592.39 76.399 C 550.442 76.597 510.189 92.98 480.025 122.132 L 476.306 122.132 L 471.673 117.474 L 471.673 19.161 C 508.608 -1.351 550.142 -12.159 592.39 -12.251 L 592.39 76.399 Z M 469.808 115.608 L 415.761 61.291 C 431.852 45.241 450.031 31.429 469.808 20.229 L 469.808 115.608 Z M 469.808 118.272 L 469.808 122.132 L 370.722 122.132 C 382.305 100.27 397.024 80.219 414.41 62.617 L 469.808 118.272 Z M 469.808 124.024 L 469.808 132.903 C 443.95 162.674 429.643 200.74 429.491 240.172 L 341.306 240.172 C 341.389 199.734 351.154 159.903 369.783 124.011 L 469.808 124.024 Z M 429.491 242.051 C 429.643 281.483 443.95 319.55 469.808 349.32 L 469.808 358.212 L 369.783 358.212 C 351.156 322.324 341.392 282.498 341.306 242.064 L 429.491 242.051 Z M 469.808 360.078 L 469.808 363.939 L 414.474 419.568 C 397.088 401.965 382.37 381.915 370.787 360.052 L 469.808 360.078 Z M 469.808 366.615 L 469.808 461.994 C 450.031 450.794 431.852 436.982 415.761 420.932 L 469.808 366.615 Z M 471.673 364.736 L 476.306 360.078 L 480.025 360.078 C 510.187 389.235 550.44 405.623 592.39 405.825 L 592.39 494.487 C 550.142 494.384 508.609 483.572 471.673 463.062 L 471.673 364.736 Z M 594.269 405.825 C 636.217 405.624 676.469 389.241 706.634 360.091 L 710.353 360.091 L 716.053 365.83 L 716.053 462.445 C 678.859 483.343 636.932 494.369 594.269 494.474 L 594.269 405.825 Z M 717.919 367.709 L 770.872 420.945 C 755.076 436.7 737.272 450.303 717.919 461.402 L 717.919 367.709 Z M 717.919 365.058 L 717.919 360.091 L 815.885 360.091 C 804.298 381.951 789.58 402.001 772.197 419.606 L 717.919 365.058 Z M 717.919 358.212 L 717.919 348.072 C 743.111 318.481 757.011 280.926 757.154 242.064 L 845.353 242.064 C 845.268 282.498 835.503 322.324 816.876 358.212 L 717.919 358.212 Z M 847.219 242.064 L 877.884 242.064 L 877.884 358.212 L 818.986 358.212 C 837.462 322.274 847.139 282.461 847.219 242.051 L 847.219 242.064 Z M 847.219 240.185 C 847.141 199.771 837.464 159.954 818.986 124.011 L 877.884 124.011 L 877.884 240.159 L 847.219 240.185 Z M 817.995 122.158 C 806.251 99.793 791.264 79.287 773.523 61.304 L 876.7 -42.375 L 876.79 -42.298 C 877.176 -41.899 877.562 -41.474 877.948 -41.011 L 877.948 122.145 L 817.995 122.158 Z M 875.285 -43.675 L 772.197 59.966 C 756.035 43.834 737.779 29.945 717.919 18.672 L 717.919 -44.962 L 873.946 -44.962 L 875.285 -43.675 Z M 716.053 17.63 C 678.802 -3.097 636.898 -14.024 594.269 -14.13 L 594.269 -45.013 L 716.053 -45.013 L 716.053 17.63 Z M 594.269 -46.841 L 594.269 -89.01 L 716.053 -89.01 L 716.053 -46.841 L 594.269 -46.841 Z M 592.39 -46.841 L 471.673 -46.841 L 471.673 -89.01 L 592.39 -89.01 L 592.39 -46.841 Z M 592.39 -44.962 L 592.39 -14.078 C 550.176 -13.979 508.664 -3.266 471.673 17.076 L 471.673 -44.962 L 592.39 -44.962 Z M 469.808 18.093 C 449.538 29.464 430.92 43.557 414.474 59.979 L 311.388 -43.662 L 312.674 -44.949 L 469.808 -44.949 L 469.808 18.093 Z M 309.933 -42.298 L 310.011 -42.375 L 413.136 61.291 C 395.387 79.27 380.396 99.777 368.651 122.145 L 308.762 122.145 L 308.762 -41.063 C 309.213 -41.474 309.535 -41.899 309.933 -42.298 Z M 367.673 124.011 C 349.199 159.946 339.523 199.754 339.44 240.159 L 308.762 240.159 L 308.762 124.011 L 367.673 124.011 Z M 339.44 242.038 C 339.519 282.452 349.195 322.27 367.673 358.212 L 308.762 358.212 L 308.762 242.051 L 339.44 242.038 Z M 368.651 360.065 C 380.396 382.433 395.387 402.94 413.136 420.919 L 310.011 524.598 L 309.933 524.521 C 309.535 524.122 309.161 523.697 308.762 523.234 L 308.762 360.078 L 368.651 360.065 Z M 311.375 525.898 L 414.461 422.257 C 430.911 438.68 449.527 452.776 469.795 464.156 L 469.795 527.21 L 312.713 527.21 L 311.375 525.898 Z M 471.673 465.199 C 508.664 485.54 550.176 496.254 592.39 496.352 L 592.39 527.236 L 471.673 527.236 L 471.673 465.199 Z M 592.39 529.063 L 592.39 571.232 L 471.673 571.232 L 471.673 529.063 L 592.39 529.063 Z M 594.269 529.063 L 716.053 529.063 L 716.053 571.232 L 594.269 571.232 L 594.269 529.063 Z M 594.269 527.185 L 594.269 496.301 C 636.898 496.196 678.802 485.268 716.053 464.542 L 716.053 527.133 L 594.269 527.185 Z M 717.919 463.551 C 737.779 452.278 756.035 438.39 772.197 422.257 L 875.285 525.898 L 873.998 527.185 L 717.919 527.185 L 717.919 463.551 Z M 876.7 524.521 L 876.61 524.598 L 773.497 420.932 C 791.239 402.949 806.225 382.443 817.97 360.078 L 877.858 360.078 L 877.858 523.286 L 876.7 524.521 Z M 923.18 69.965 L 923.18 240.172 L 879.763 240.172 L 879.763 124.011 L 922.511 124.011 L 922.511 122.132 L 879.763 122.132 L 879.763 -39.094 C 907.632 -9.62 923.167 29.401 923.18 69.965 Z M 871.99 -46.879 L 717.919 -46.879 L 717.919 -89.01 L 765.004 -89.01 C 804.714 -88.98 842.94 -73.913 871.99 -46.841 L 871.99 -46.879 Z M 421.603 -89.048 L 469.808 -89.048 L 469.808 -46.879 L 314.669 -46.879 C 343.722 -73.936 381.941 -88.989 421.642 -89.01 L 421.603 -89.048 Z M 263.466 412.259 L 263.466 69.965 C 263.474 29.386 279.014 -9.65 306.897 -39.132 L 306.897 122.106 L 264.174 122.106 L 264.174 124.011 L 306.897 124.011 L 306.897 240.159 L 264.02 240.159 L 264.02 242.038 L 306.897 242.038 L 306.897 358.212 L 264.174 358.212 L 264.174 360.091 L 306.897 360.091 L 306.897 521.33 C 279.02 491.854 263.481 452.828 263.466 412.259 Z M 314.669 529.102 L 469.808 529.102 L 469.808 571.271 L 421.642 571.271 C 381.931 571.229 343.71 556.149 314.669 529.063 L 314.669 529.102 Z M 765.056 571.271 L 717.919 571.271 L 717.919 529.063 L 871.99 529.063 C 842.938 556.134 804.714 571.201 765.004 571.232 L 765.056 571.271 Z" fill="url(#paint0_radial_415_11747)"/><mask id="mask0_415_11747" style="mask-type:alpha" maskUnits="userSpaceOnUse" x="-13" y="0" width="592" height="665"><rect x="-12.7969" width="591.785" height="664.938" fill="url(#paint1_linear_415_11747)"/></mask><g mask="url(#mask0_415_11747)" transform="matrix(1, 0, 0, 1, 261.600494, -91.826385)"><g filter="url(#filter0_b_415_11747)"><path d="M82.8643 584.71C82.8643 579.582 82.8643 577.019 83.8779 575.067C84.7321 573.423 86.0729 572.082 87.7173 571.228C89.6687 570.214 92.2324 570.214 97.3597 570.214H147.148C152.276 570.214 154.839 570.214 156.791 571.228C158.435 572.082 159.776 573.423 160.63 575.067C161.644 577.019 161.644 579.582 161.644 584.71V634.499C161.644 639.626 161.644 642.19 160.63 644.141C159.776 645.785 158.435 647.126 156.791 647.98C154.839 648.994 152.276 648.994 147.148 648.994H97.3597C92.2324 648.994 89.6687 648.994 87.7173 647.98C86.0729 647.126 84.7321 645.785 83.8779 644.141C82.8643 642.19 82.8643 639.626 82.8643 634.499V584.71Z" fill="white" fill-opacity="0.1"/><path d="M147.148 569.745H97.3597H97.3374C94.7926 569.745 92.8539 569.745 91.3087 569.874C89.7534 570.003 88.5549 570.264 87.5012 570.812C85.7711 571.711 84.3605 573.121 83.4618 574.851C82.9144 575.905 82.6528 577.104 82.5236 578.659C82.3953 580.204 82.3953 582.143 82.3953 584.687V584.71V634.499V634.521C82.3953 637.066 82.3953 639.004 82.5236 640.55C82.6528 642.105 82.9144 643.303 83.4618 644.357C84.3605 646.087 85.7711 647.498 87.5012 648.396C88.5549 648.944 89.7534 649.205 91.3087 649.335C92.8538 649.463 94.7924 649.463 97.3371 649.463H97.3597H147.148H147.171C149.716 649.463 151.654 649.463 153.199 649.335C154.755 649.205 155.953 648.944 157.007 648.396C158.737 647.498 160.148 646.087 161.046 644.357C161.594 643.303 161.855 642.105 161.985 640.55C162.113 639.004 162.113 637.066 162.113 634.521V634.499V584.71V584.687C162.113 582.143 162.113 580.204 161.985 578.659C161.855 577.104 161.594 575.905 161.046 574.851C160.148 573.121 158.737 571.711 157.007 570.812C155.953 570.264 154.755 570.003 153.199 569.874C151.654 569.745 149.716 569.745 147.171 569.745H147.148Z" stroke="white" stroke-opacity="0.2" stroke-width="0.937853"/></g><g filter="url(#filter1_b_415_11747)"><path d="M359.185 66.2432H309.479C301.709 66.2432 295.411 72.5415 295.411 80.311V130.017C295.411 137.787 301.709 144.085 309.479 144.085H359.185C366.955 144.085 373.253 137.787 373.253 130.017V80.311C373.253 72.5415 366.955 66.2432 359.185 66.2432Z" fill="white" fill-opacity="0.1"/><path d="M359.185 65.7742H309.479C301.451 65.7742 294.942 72.2825 294.942 80.311V130.017C294.942 138.046 301.451 144.554 309.479 144.554H359.185C367.214 144.554 373.722 138.046 373.722 130.017V80.311C373.722 72.2826 367.214 65.7742 359.185 65.7742Z" stroke="white" stroke-opacity="0.2" stroke-width="0.937853"/></g><g filter="url(#filter2_b_415_11747)"><rect x="131.038" y="25.6665" width="78.7796" height="78.7796" rx="15.0056" fill="white" fill-opacity="0.1"/><rect x="130.569" y="25.1976" width="79.7175" height="79.7175" rx="15.4746" stroke="white" stroke-opacity="0.2" stroke-width="0.937853"/></g><g filter="url(#filter3_b_415_11747)"/><g filter="url(#filter4_b_415_11747)"><rect x="415.767" y="332.938" width="78.7797" height="78.7797" rx="14.0678" transform="rotate(0.656233 415.767 332.938)" fill="white" fill-opacity="0.1"/><rect x="415.303" y="332.464" width="79.7175" height="79.7175" rx="14.5367" transform="rotate(0.656233 415.303 332.464)" stroke="white" stroke-opacity="0.2" stroke-width="0.937853"/></g><path d="M441.663 367.843C441.654 368.581 441.727 369.181 441.862 369.622C442.017 370.063 442.211 370.544 442.484 371.066C442.582 371.227 442.62 371.387 442.619 371.527C442.617 371.727 442.494 371.925 442.233 372.122L440.965 372.946C440.784 373.063 440.604 373.121 440.444 373.119C440.245 373.117 440.046 373.015 439.849 372.833C439.573 372.53 439.337 372.208 439.141 371.887C438.945 371.545 438.75 371.163 438.536 370.702C436.958 372.52 434.991 373.416 432.635 373.389C430.959 373.37 429.627 372.876 428.659 371.906C427.692 370.937 427.208 369.654 427.226 368.057C427.246 366.36 427.86 364.99 429.09 363.965C430.319 362.941 431.942 362.441 433.998 362.464C434.677 362.472 435.375 362.54 436.112 362.648C436.85 362.757 437.607 362.925 438.403 363.114L438.42 361.657C438.437 360.14 438.13 359.078 437.518 358.452C436.886 357.826 435.812 357.514 434.275 357.497C433.576 357.489 432.857 357.56 432.116 357.731C431.375 357.903 430.654 358.114 429.952 358.385C429.631 358.521 429.391 358.599 429.251 358.637C429.111 358.675 429.01 358.694 428.931 358.693C428.651 358.69 428.514 358.489 428.519 358.069L428.53 357.091C428.533 356.772 428.576 356.533 428.677 356.394C428.779 356.256 428.96 356.118 429.241 355.982C429.944 355.63 430.786 355.34 431.767 355.112C432.748 354.864 433.787 354.756 434.885 354.768C437.26 354.796 438.991 355.355 440.096 356.445C441.182 357.536 441.722 359.179 441.697 361.375L441.623 367.842L441.663 367.843ZM433.524 370.784C434.182 370.792 434.862 370.68 435.584 370.448C436.305 370.217 436.949 369.785 437.495 369.193C437.819 368.817 438.063 368.4 438.188 367.923C438.313 367.445 438.4 366.867 438.408 366.188L438.417 365.35C437.84 365.204 437.223 365.077 436.585 364.99C435.947 364.902 435.328 364.855 434.71 364.848C433.372 364.833 432.391 365.081 431.726 365.613C431.061 366.144 430.733 366.899 430.722 367.897C430.711 368.835 430.943 369.537 431.436 370.022C431.91 370.526 432.605 370.774 433.524 370.784ZM449.528 373.124C449.169 373.119 448.93 373.057 448.772 372.915C448.614 372.794 448.477 372.513 448.362 372.132L443.847 356.648C443.732 356.247 443.675 355.987 443.677 355.847C443.68 355.528 443.842 355.35 444.162 355.354L446.118 355.376C446.497 355.381 446.756 355.443 446.894 355.585C447.052 355.706 447.169 355.987 447.284 356.368L450.487 369.621L453.752 356.442C453.856 356.044 453.979 355.786 454.14 355.668C454.301 355.55 454.582 355.473 454.941 355.477L456.538 355.496C456.917 355.5 457.176 355.563 457.334 355.704C457.492 355.826 457.629 356.107 457.704 356.487L460.705 369.898L464.312 356.563C464.436 356.165 464.579 355.907 464.72 355.789C464.881 355.671 465.141 355.594 465.501 355.598L467.357 355.62C467.676 355.623 467.854 355.785 467.85 356.124C467.849 356.224 467.828 356.324 467.807 356.443C467.785 356.563 467.744 356.722 467.661 356.941L462.674 372.316C462.549 372.714 462.407 372.972 462.246 373.09C462.085 373.207 461.824 373.284 461.485 373.28L459.768 373.261C459.389 373.256 459.13 373.194 458.972 373.052C458.814 372.911 458.677 372.649 458.602 372.249L455.655 359.339L452.434 372.159C452.33 372.557 452.207 372.815 452.046 372.953C451.884 373.091 451.604 373.147 451.245 373.143L449.528 373.124ZM475.173 373.956C474.135 373.944 473.098 373.813 472.103 373.562C471.107 373.311 470.332 373.042 469.816 372.737C469.499 372.554 469.282 372.352 469.204 372.171C469.126 371.99 469.088 371.79 469.09 371.611L469.102 370.593C469.107 370.174 469.269 369.976 469.568 369.979C469.688 369.981 469.808 370.002 469.927 370.043C470.046 370.084 470.225 370.166 470.424 370.248C471.099 370.556 471.835 370.804 472.611 370.972C473.408 371.141 474.186 371.23 474.984 371.239C476.242 371.253 477.222 371.045 477.906 370.614C478.59 370.182 478.956 369.548 478.966 368.729C478.972 368.17 478.798 367.709 478.443 367.326C478.088 366.942 477.413 366.595 476.439 366.265L473.554 365.333C472.102 364.857 471.032 364.166 470.384 363.261C469.735 362.375 469.407 361.393 469.419 360.355C469.429 359.516 469.617 358.78 469.983 358.145C470.35 357.51 470.835 356.957 471.439 356.525C472.043 356.073 472.726 355.741 473.527 355.511C474.328 355.28 475.168 355.19 476.046 355.2C476.485 355.205 476.944 355.23 477.383 355.295C477.841 355.36 478.259 355.445 478.678 355.53C479.076 355.634 479.454 355.738 479.812 355.862C480.17 355.986 480.448 356.109 480.646 356.231C480.924 356.394 481.122 356.556 481.239 356.737C481.357 356.898 481.415 357.118 481.411 357.398L481.401 358.336C481.396 358.755 481.234 358.973 480.934 358.969C480.774 358.967 480.516 358.885 480.178 358.721C479.047 358.189 477.772 357.915 476.355 357.899C475.217 357.886 474.317 358.055 473.693 358.427C473.07 358.799 472.744 359.375 472.735 360.193C472.728 360.752 472.923 361.233 473.317 361.617C473.712 362.001 474.447 362.389 475.501 362.74L478.325 363.671C479.757 364.147 480.788 364.797 481.397 365.623C482.006 366.448 482.295 367.39 482.283 368.428C482.273 369.286 482.085 370.063 481.738 370.737C481.371 371.412 480.885 372.005 480.26 372.477C479.636 372.969 478.893 373.32 478.032 373.57C477.13 373.839 476.191 373.968 475.173 373.956Z" fill="white"/><path d="M478.835 383.701C472.212 388.476 462.641 390.942 454.437 390.848C442.939 390.716 432.627 386.346 424.883 379.19C424.271 378.624 424.839 377.871 425.572 378.319C433.98 383.327 444.385 386.42 455.185 386.544C462.471 386.628 470.493 385.202 477.894 382.173C478.998 381.686 479.922 382.914 478.835 383.701ZM481.605 380.618C480.779 379.53 476.062 380.035 473.923 380.27C473.283 380.343 473.19 379.783 473.774 379.37C477.557 376.778 483.716 377.608 484.424 378.494C485.133 379.401 484.144 385.558 480.597 388.472C480.053 388.925 479.536 388.68 479.783 388.084C480.604 386.117 482.431 381.685 481.605 380.618Z" fill="white"/><g filter="url(#filter5_b_415_11747)"><rect x="210.412" y="166" width="78.7797" height="78.7797" rx="14.0678" fill="white" fill-opacity="0.1"/><rect x="209.943" y="165.531" width="79.7175" height="79.7175" rx="14.5367" stroke="white" stroke-opacity="0.2" stroke-width="0.937853"/></g><g filter="url(#filter6_b_415_11747)"><rect x="360.62" y="216.795" width="78.7797" height="78.7797" rx="14.0678" fill="white" fill-opacity="0.1"/><rect x="360.151" y="216.326" width="79.7175" height="79.7175" rx="14.5367" stroke="white" stroke-opacity="0.2" stroke-width="0.937853"/></g><g filter="url(#filter7_b_415_11747)"><path d="M322.855 303.864H260.217C256.019 303.864 252.615 307.268 252.615 311.466V374.104C252.615 378.303 256.019 381.706 260.217 381.706H322.855C327.054 381.706 330.457 378.303 330.457 374.104V311.466C330.457 307.268 327.054 303.864 322.855 303.864Z" fill="white" fill-opacity="0.1"/><path d="M322.855 303.395H260.217C255.76 303.395 252.146 307.009 252.146 311.466V374.104C252.146 378.562 255.76 382.175 260.217 382.175H322.855C327.313 382.175 330.926 378.562 330.926 374.104V311.466C330.926 307.009 327.313 303.395 322.855 303.395Z" stroke="white" stroke-opacity="0.2" stroke-width="0.937853"/></g><g filter="url(#filter8_b_415_11747)"><rect x="282.627" y="440.791" width="78.7797" height="78.7797" rx="14.0678" fill="white" fill-opacity="0.1"/><rect x="282.158" y="440.322" width="79.7175" height="79.7175" rx="14.5367" stroke="white" stroke-opacity="0.2" stroke-width="0.937853"/></g><g clip-path="url(#clip2_415_11747)"><path d="M322.093 453.657C307.025 453.657 294.818 465.874 294.818 480.932C294.818 492.989 302.633 503.208 313.462 506.814C314.831 507.071 315.326 506.227 315.326 505.498C315.326 504.85 315.31 503.137 315.3 500.863C307.709 502.506 306.11 497.196 306.11 497.196C304.867 494.052 303.074 493.209 303.074 493.209C300.606 491.523 303.27 491.559 303.27 491.559C306.004 491.744 307.443 494.363 307.443 494.363C309.876 498.536 313.825 497.329 315.389 496.627C315.627 494.869 316.338 493.66 317.112 492.987C311.057 492.303 304.69 489.96 304.69 479.508C304.69 476.523 305.747 474.093 307.494 472.183C307.193 471.5 306.269 468.721 307.735 464.964C307.735 464.964 310.017 464.236 315.235 467.761C317.419 467.156 319.737 466.855 322.054 466.839C324.372 466.855 326.689 467.158 328.872 467.761C334.06 464.236 336.341 464.964 336.341 464.964C337.805 468.721 336.881 471.498 336.615 472.183C338.345 474.093 339.402 476.525 339.402 479.508C339.402 489.983 333.027 492.293 326.965 492.96C327.913 493.776 328.801 495.455 328.801 498.004C328.801 501.652 328.767 504.591 328.767 505.479C328.767 506.188 329.244 507.04 330.649 506.766C341.559 503.198 349.364 492.97 349.364 480.93C349.364 465.873 337.157 453.655 322.09 453.655L322.093 453.657Z" fill="white"/></g><g filter="url(#filter9_b_415_11747)"><rect x="129.756" y="416.407" width="78.7797" height="78.7797" rx="14.0678" fill="white" fill-opacity="0.1"/><rect x="129.287" y="415.938" width="79.7175" height="79.7175" rx="14.5367" stroke="white" stroke-opacity="0.2" stroke-width="0.937853"/></g><g filter="url(#filter10_b_415_11747)"><rect x="104.435" y="254.158" width="78.7797" height="78.7797" rx="14.0678" fill="white" fill-opacity="0.1"/><rect x="103.966" y="253.689" width="79.7175" height="79.7175" rx="14.5367" stroke="white" stroke-opacity="0.2" stroke-width="0.937853"/></g><g filter="url(#filter11_b_415_11747)"><rect x="322.955" y="559.898" width="78.7797" height="78.7797" rx="14.0678" fill="white" fill-opacity="0.1"/><rect x="322.486" y="559.43" width="79.7175" height="79.7175" rx="14.5367" stroke="white" stroke-opacity="0.2" stroke-width="0.937853"/></g><circle cx="92.8" cy="174.893" r="77" style="fill: rgb(255, 255, 255);" transform="matrix(0.376312, 0, 0, 0.355325, 299.470306, 42.357189)"/><g style="" transform="matrix(0.376312, 0, 0, 0.355325, 299.470306, 42.357189)"><path d="M 97.175 116.56 L 58.425 186.56 L 93.3 186.56 L 89.425 233.226 L 128.175 163.226 L 93.3 163.226 L 97.175 116.56 Z" style="fill: rgb(1, 1, 1);"/></g><g style="" transform="matrix(0.864327, 0, 0, 0.91374, 19.131561, 25.10006)"><path d="M 169.018 310.833 C 178.266 297.981 179.803 279.279 172.451 269.061 C 165.1 258.844 151.646 260.98 142.399 273.832 C 133.152 286.684 135.827 311.239 138.967 315.605 C 141.504 319.131 159.772 323.685 169.018 310.833 Z" id="path5" style="fill: rgb(243, 248, 238);"/><path d="M 131.074 292.261 C 125.709 284.805 117.902 283.563 113.636 289.493 C 109.371 295.422 110.262 306.275 115.628 313.73 C 120.994 321.189 131.245 319.031 133.065 316.499 C 134.539 314.454 136.44 299.719 131.074 292.261 Z" id="path7" style="fill: rgb(201, 205, 200);"/><g id="g11" transform="matrix(0.1837, 0, 0, 0.275047, 101.29892, 215.800354)"><path d="M 239.425 337.958 C 236.018 341.188 233.021 343.578 230.435 345.12 C 227.849 346.667 225.369 347.452 222.994 347.477 C 220.262 347.506 218.037 346.47 216.323 344.368 C 214.607 342.265 213.716 339.43 213.643 335.853 C 213.535 330.492 214.567 324.045 216.74 316.517 C 218.908 308.984 221.593 302.035 224.783 295.67 L 234.438 291.967 C 234.741 291.862 234.972 291.807 235.126 291.806 C 235.864 291.798 236.485 292.335 236.975 293.413 C 237.47 294.496 237.737 295.956 237.774 297.794 C 237.879 303.002 236.782 308.057 234.478 312.959 C 232.175 317.862 228.528 323.108 223.534 328.702 C 223.383 331.359 223.318 333.184 223.338 334.181 C 223.383 336.404 223.826 338.158 224.669 339.453 C 225.513 340.749 226.61 341.386 227.964 341.372 C 229.345 341.357 230.802 340.848 232.34 339.836 C 233.874 338.822 236.208 336.731 239.335 333.555 L 239.424 337.958 L 239.425 337.958 Z M 224.456 323.139 C 227.625 319.501 230.176 315.431 232.102 310.937 C 234.027 306.442 234.957 302.582 234.892 299.358 C 234.873 298.418 234.718 297.655 234.428 297.084 C 234.135 296.512 233.769 296.227 233.336 296.232 C 232.395 296.242 231.068 298.608 229.362 303.331 C 227.656 308.053 226.021 314.657 224.456 323.139 Z" id="path13" style="fill:#010101"/><path d="M 268.074 337.658 C 264.896 340.887 262.034 343.275 259.485 344.817 C 256.936 346.364 254.108 347.152 250.991 347.185 C 247.518 347.221 244.694 346.139 242.515 343.943 C 240.339 341.74 239.216 338.831 239.143 335.204 C 239.034 329.793 240.81 324.877 244.479 320.459 C 248.14 316.039 252.26 313.807 256.829 313.759 C 259.204 313.735 261.116 314.33 262.573 315.54 C 264.027 316.751 264.775 318.351 264.815 320.343 C 264.922 325.629 259.392 329.974 248.224 333.386 C 249.345 338.352 252.063 340.816 256.378 340.771 C 258.064 340.753 259.662 340.284 261.174 339.364 C 262.691 338.44 264.959 336.402 267.986 333.257 L 268.075 337.658 L 268.074 337.658 Z M 247.863 330.785 C 254.36 328.877 257.561 325.449 257.461 320.495 C 257.412 318.045 256.492 316.829 254.707 316.848 C 253.022 316.865 251.441 318.163 249.962 320.748 C 248.477 323.329 247.78 326.672 247.863 330.785 Z" id="path15" style="fill:#010101"/><path d="M 308.975 337.231 C 304.968 341.155 302.095 343.716 300.359 344.91 C 298.621 346.102 296.948 346.706 295.338 346.723 C 291.304 346.765 289.331 343.224 289.416 336.097 C 286.937 339.774 284.635 342.492 282.512 344.254 C 280.391 346.013 278.182 346.902 275.881 346.926 C 273.638 346.949 271.709 345.918 270.093 343.828 C 268.478 341.738 267.645 339.162 267.583 336.095 C 267.506 332.268 268.483 328.605 270.518 325.109 C 272.556 321.614 275.2 318.78 278.449 316.601 C 281.698 314.422 284.59 313.317 287.115 313.291 C 290.308 313.258 292.572 314.703 293.908 317.625 L 301.648 313.217 L 303.796 313.195 L 300.642 324.45 C 299.02 330.113 298.227 333.99 298.269 336.083 C 298.313 338.278 299.112 339.368 300.671 339.351 C 301.663 339.341 302.75 338.8 303.93 337.727 C 305.109 336.654 306.758 335.021 308.884 332.829 L 308.973 337.231 L 308.975 337.231 Z M 280.984 339.633 C 283.537 339.606 285.898 337.405 288.074 333.029 C 290.246 328.651 291.294 324.622 291.22 320.946 C 291.191 319.518 290.847 318.403 290.195 317.606 C 289.538 316.806 288.675 316.415 287.605 316.426 C 285.051 316.453 282.673 318.648 280.48 323.013 C 278.282 327.379 277.218 331.386 277.292 335.034 C 277.319 336.415 277.682 337.528 278.375 338.377 C 279.068 339.226 279.935 339.644 280.984 339.633 Z" id="path17" style="fill:#010101"/><path d="M 337.585 336.933 C 331.303 343.28 326.425 346.474 322.953 346.51 C 321.394 346.527 320.065 345.882 318.969 344.583 C 317.872 343.278 317.3 341.655 317.261 339.713 C 317.189 336.113 319.021 331.27 322.754 325.177 C 320.882 326.168 318.83 326.863 316.59 327.271 C 314.992 330.352 312.453 333.674 308.976 337.23 L 308.097 337.24 L 308.028 333.797 C 309.976 331.708 311.732 329.467 313.293 327.075 C 311.075 326.127 309.95 324.696 309.911 322.784 C 309.871 320.815 310.497 318.71 311.796 316.459 C 313.09 314.213 314.912 313.078 317.262 313.053 C 319.254 313.032 320.269 314.04 320.31 316.084 C 320.342 317.693 319.815 319.995 318.724 322.996 C 322.952 322.491 326.59 319.213 329.636 313.152 L 333.116 312.962 L 329.752 322.803 C 328.356 326.955 327.455 329.783 327.052 331.279 C 326.649 332.775 326.457 334.101 326.48 335.248 C 326.502 336.322 326.769 337.178 327.278 337.806 C 327.789 338.444 328.467 338.753 329.309 338.744 C 330.227 338.735 331.103 338.411 331.933 337.781 C 332.762 337.141 334.617 335.393 337.497 332.529 L 337.586 336.933 L 337.585 336.933 Z" id="path19" style="fill:#010101"/><path d="M 375.195 336.54 C 369.424 342.835 364.428 346.001 360.217 346.045 C 358.507 346.063 357.116 345.478 356.045 344.288 C 354.972 343.1 354.416 341.497 354.375 339.481 C 354.32 336.749 355.361 332.562 357.495 326.924 C 358.634 323.897 359.197 321.973 359.18 321.159 C 359.164 320.342 358.834 319.936 358.199 319.943 C 357.842 319.946 357.37 320.131 356.792 320.492 C 356.26 320.855 355.645 321.363 354.943 322.008 C 354.318 322.6 353.615 323.323 352.841 324.171 C 352.165 324.899 351.441 325.723 350.672 326.647 L 348.575 329.161 C 347.655 330.319 347.091 331.536 346.888 332.816 C 346.547 334.99 346.333 336.986 346.241 338.802 C 346.19 340.153 346.19 341.977 346.236 344.28 L 337.812 346.356 C 337.464 342.912 337.269 340.347 337.235 338.664 C 337.152 334.554 337.553 330.654 338.437 326.969 C 339.32 323.279 340.774 319.129 342.802 314.51 L 352.108 312.613 C 350.25 317.92 349.045 322.093 348.493 325.136 C 352.587 320.421 355.841 317.153 358.266 315.324 C 360.686 313.498 362.856 312.579 364.768 312.559 C 366.066 312.546 367.162 313.024 368.047 313.996 C 368.936 314.969 369.392 316.197 369.422 317.671 C 369.472 320.12 368.455 324.166 366.376 329.808 C 364.946 333.678 364.242 336.186 364.265 337.341 C 364.296 338.878 364.939 339.639 366.193 339.626 C 368.059 339.607 371.033 337.11 375.107 332.139 L 375.195 336.54 Z" id="path21" style="fill:#010101"/></g><g><text id="text25" style="font-family: Helvetica; font-size: 23.1px; line-height: 0px; white-space: pre;" transform="matrix(0.27304, 0, 0, 0.379508, 94.281982, 221.749252)" x="192.273" y="204.548">scikit</text></g></g><path d="M 416.912 285.187 C 408.079 285.187 400.892 278.359 400.892 269.965 C 400.892 264.543 403.961 259.491 408.902 256.782 L 413.708 264.691 C 411.733 265.775 410.504 267.795 410.504 269.965 C 410.504 273.265 413.439 276.053 416.912 276.053 C 420.386 276.053 423.321 273.265 423.321 269.965 C 423.321 267.795 422.092 265.775 420.116 264.691 L 424.923 256.782 C 429.864 259.491 432.933 264.544 432.933 269.965 C 432.933 278.359 425.746 285.187 416.912 285.187 Z" style="fill: rgb(253, 248, 248);"/><path d="M 407.299 254.177 L 402.494 246.267 C 404.469 245.184 405.697 243.162 405.697 240.995 C 405.697 237.693 402.762 234.906 399.289 234.906 C 395.816 234.906 392.882 237.693 392.882 240.995 C 392.882 243.164 394.109 245.184 396.085 246.267 L 391.279 254.177 C 386.338 251.465 383.268 246.413 383.268 240.992 C 383.268 232.599 390.455 225.77 399.289 225.77 C 408.123 225.77 415.311 232.599 415.311 240.992 C 415.311 246.415 412.24 251.468 407.299 254.177 Z" style="fill: rgb(240, 245, 230);"/><path d="M 381.668 285.23 C 376.126 285.23 370.731 282.501 367.766 277.623 C 363.348 270.353 365.979 261.026 373.629 256.828 C 378.572 254.116 384.711 254.116 389.65 256.828 L 384.843 264.737 C 382.866 263.652 380.412 263.652 378.435 264.737 C 375.427 266.387 374.353 270.196 376.088 273.054 C 377.825 275.912 381.833 276.935 384.843 275.283 C 386.819 274.199 388.048 272.178 388.048 270.01 L 397.66 270.01 C 397.66 275.431 394.591 280.482 389.65 283.193 C 387.135 284.575 384.382 285.23 381.668 285.23 Z" style="fill: rgb(214, 212, 212);"/><g><g><g><g fill="#0091e2" transform="matrix(0.104896, 0, 0, 0.1178, 262.244995, 302.600586)" style=""><path d="m592.162 277.804c-1.664-1.37-16.642-12.597-48.815-12.597-8.321 0-16.92.822-25.24 2.191-6.102-41.898-41.327-62.162-42.714-63.257l-8.598-4.93-5.547 7.942c-6.934 10.68-12.204 22.729-15.255 35.052-5.824 23.824-2.219 46.279 9.985 65.447-14.7 8.216-38.553 10.133-43.545 10.406h-393.853c-10.262 0-18.583 8.216-18.583 18.348-.554 33.956 5.27 67.912 17.197 99.951 13.59 35.052 33.838 61.067 59.91 76.95 29.4 17.799 77.383 27.931 131.468 27.931 24.408 0 48.815-2.19 72.946-6.572 33.56-6.025 65.734-17.526 95.412-34.23a260.485 260.485 0 0 0 64.902-52.577c31.342-34.778 49.925-73.663 63.515-108.167h5.547c34.116 0 55.195-13.418 66.844-24.92 7.766-7.12 13.59-15.882 17.751-25.74l2.497-7.12z" style="fill: rgb(226, 223, 225);"/><path d="m55.193 306.83h52.698c2.497 0 4.716-1.916 4.716-4.654v-46.553c0-2.465-1.942-4.655-4.716-4.655h-52.698c-2.496 0-4.715 1.916-4.715 4.655v46.553c.277 2.738 2.219 4.655 4.715 4.655zm72.668 0h52.699c2.496 0 4.715-1.916 4.715-4.654v-46.553c0-2.465-1.942-4.655-4.715-4.655h-52.7c-2.496 0-4.715 1.916-4.715 4.655v46.553c.278 2.738 2.22 4.655 4.715 4.655m74.055 0h52.699c2.496 0 4.715-1.917 4.715-4.655v-46.553c0-2.465-1.942-4.655-4.715-4.655h-52.699c-2.496 0-4.715 1.916-4.715 4.655v46.553c0 2.738 1.942 4.655 4.715 4.655zm72.946 0h52.699c2.496 0 4.715-1.917 4.715-4.655v-46.553c0-2.465-1.942-4.655-4.715-4.655h-52.699c-2.496 0-4.715 1.916-4.715 4.655v46.553c0 2.738 2.219 4.655 4.715 4.655zm-147-66.543h52.698c2.496 0 4.715-2.19 4.715-4.655v-46.553c0-2.465-1.942-4.656-4.715-4.656h-52.699c-2.496 0-4.715 1.917-4.715 4.656v46.553c.278 2.464 2.22 4.655 4.715 4.655m74.055 0h52.699c2.496 0 4.715-2.19 4.715-4.655v-46.553c0-2.465-1.942-4.656-4.715-4.656h-52.699c-2.496 0-4.715 1.917-4.715 4.656v46.553c0 2.464 1.942 4.655 4.715 4.655m72.946 0h52.699c2.496 0 4.715-2.19 4.715-4.655v-46.553c0-2.465-2.22-4.656-4.715-4.656h-52.699c-2.496 0-4.715 1.917-4.715 4.656v46.553c0 2.464 2.219 4.655 4.715 4.655m0-66.817h52.699c2.496 0 4.715-1.917 4.715-4.655v-46.553c0-2.465-2.22-4.656-4.715-4.656h-52.699c-2.496 0-4.715 1.917-4.715 4.656v46.553c0 2.464 2.219 4.655 4.715 4.655m73.5 133.36h52.699c2.496 0 4.715-1.917 4.715-4.655v-46.553c0-2.465-1.941-4.655-4.715-4.655h-52.698c-2.497 0-4.716 1.916-4.716 4.655v46.553c.278 2.738 2.22 4.655 4.716 4.655" style="fill: rgb(226, 223, 225);"/></g></g></g></g><title>DeepSeek</title><g transform="matrix(1, 0, 0, 1, -44.87991, 151.775681)"><g><g id="Layer_1-2" data-name="Layer 1" transform="matrix(0.177735, 0, 0, 0.145428, 136.061676, 435.849884)" style=""><path id="path" class="cls-1" d="M373.15,23.32c-4-1.95-5.72,1.77-8.06,3.66-.79.62-1.47,1.43-2.14,2.14-5.85,6.26-12.67,10.36-21.57,9.86-13.04-.71-24.16,3.38-33.99,13.37-2.09-12.31-9.04-19.66-19.6-24.38-5.54-2.45-11.13-4.9-14.99-10.23-2.71-3.78-3.44-8-4.81-12.16-.85-2.51-1.72-5.09-4.6-5.52-3.13-.5-4.36,2.14-5.58,4.34-4.93,8.99-6.82,18.92-6.65,28.97.43,22.58,9.97,40.56,28.89,53.37,2.16,1.46,2.71,2.95,2.03,5.09-1.29,4.4-2.82,8.68-4.19,13.09-.85,2.82-2.14,3.44-5.15,2.2-10.39-4.34-19.37-10.76-27.29-18.55-13.46-13.02-25.63-27.41-40.81-38.67-3.57-2.64-7.12-5.09-10.81-7.41-15.49-15.07,2.03-27.45,6.08-28.9,4.25-1.52,1.47-6.79-12.23-6.73-13.69.06-26.24,4.65-42.21,10.76-2.34.93-4.79,1.61-7.32,2.14-14.5-2.73-29.55-3.35-45.29-1.58-29.62,3.32-53.28,17.34-70.68,41.28C1.29,88.2-3.63,120.88,2.39,155c6.33,35.91,24.64,65.68,52.8,88.94,29.18,24.1,62.8,35.91,101.15,33.65,23.29-1.33,49.23-4.46,78.48-29.24,7.38,3.66,15.12,5.12,27.97,6.23,9.89.93,19.41-.5,26.79-2.02,11.55-2.45,10.75-13.15,6.58-15.13-33.87-15.78-26.44-9.36-33.2-14.54,17.21-20.41,43.15-41.59,53.3-110.19.79-5.46.11-8.87,0-13.3-.06-2.67.54-3.72,3.61-4.03,8.48-.96,16.72-3.29,24.28-7.47,21.94-12,30.78-31.69,32.87-55.33.31-3.6-.06-7.35-3.86-9.24ZM181.96,235.97c-32.83-25.83-48.74-34.33-55.31-33.96-6.14.34-5.04,7.38-3.69,11.97,1.41,4.53,3.26,7.66,5.85,11.63,1.78,2.64,3.01,6.57-1.78,9.49-10.57,6.58-28.95-2.2-29.82-2.64-21.38-12.59-39.26-29.24-51.87-52.01-12.16-21.92-19.23-45.43-20.39-70.52-.31-6.08,1.47-8.22,7.49-9.3,7.92-1.46,16.11-1.77,24.03-.62,33.49,4.9,62.01,19.91,85.9,43.63,13.65,13.55,23.97,29.71,34.61,45.49,11.3,16.78,23.48,32.75,38.97,45.84,5.46,4.59,9.83,8.09,14,10.67-12.59,1.4-33.62,1.71-47.99-9.68ZM197.69,134.65c0-2.7,2.15-4.84,4.87-4.84.6,0,1.16.12,1.66.31.67.25,1.29.62,1.77,1.18.87.84,1.36,2.08,1.36,3.35,0,2.7-2.15,4.84-4.85,4.84s-4.81-2.14-4.81-4.84ZM246.55,159.77c-3.13,1.27-6.26,2.39-9.27,2.51-4.67.22-9.77-1.68-12.55-4-4.3-3.6-7.36-5.61-8.67-11.94-.54-2.7-.23-6.85.25-9.24,1.12-5.15-.12-8.44-3.74-11.44-2.96-2.45-6.7-3.1-10.82-3.1-1.54,0-2.95-.68-4-1.24-1.72-.87-3.13-3.01-1.78-5.64.43-.84,2.53-2.92,3.02-3.29,5.58-3.19,12.03-2.14,18,.25,5.54,2.26,9.71,6.42,15.72,12.28,6.16,7.1,7.26,9.09,10.76,14.39,2.76,4.19,5.29,8.47,7.01,13.37,1.04,3.04-.31,5.55-3.94,7.1Z" style="stroke-width: 0px; fill: url(&quot;#gradient-0&quot;);"/></g></g></g><g transform="matrix(0.817093, 0, 0, 0.959905, 142.235672, 105.209755)" style=""><path d="M 53.969 355.637 C 52.916 355.633 51.906 356.05 51.163 356.795 L 48.145 359.805 C 47.329 360.62 46.91 361.75 46.998 362.9 L 47.017 363.091 C 47.12 363.968 47.517 364.784 48.145 365.405 C 48.58 365.839 49.059 366.114 49.641 366.305 C 49.671 366.48 49.688 366.657 49.688 366.835 C 49.688 367.632 49.378 368.381 48.814 368.942 L 48.628 369.128 C 47.62 368.784 46.78 368.281 46.021 367.524 C 45.017 366.528 44.344 365.246 44.094 363.854 L 44.06 363.661 L 43.907 363.785 C 43.804 363.868 43.706 363.957 43.613 364.05 L 40.595 367.06 C 38.439 369.212 39.422 372.891 42.364 373.682 C 42.702 373.772 43.051 373.818 43.402 373.817 C 44.454 373.819 45.463 373.403 46.208 372.659 L 49.227 369.649 C 50.773 368.103 50.773 365.596 49.227 364.05 C 48.814 363.639 48.314 363.324 47.765 363.13 C 47.589 362.085 47.934 361.019 48.689 360.275 C 49.692 360.615 50.604 361.181 51.353 361.931 C 52.355 362.928 53.028 364.209 53.279 365.601 L 53.314 365.794 L 53.467 365.67 C 53.571 365.587 53.669 365.497 53.763 365.403 L 56.781 362.393 C 58.936 360.242 57.955 356.564 55.014 355.773 C 54.674 355.682 54.324 355.636 53.973 355.637 L 53.969 355.637 Z" style="fill: url(&quot;#gradient-1&quot;);"/><path d="M 52.352 344.629 L 12.862 344.629 C 1.608 344.629 -7.545 353.759 -7.545 364.98 C -7.545 376.202 1.609 385.331 12.861 385.331 L 52.351 385.331 C 63.604 385.331 72.758 376.201 72.758 364.981 C 72.758 353.757 63.604 344.628 52.352 344.628 L 52.352 344.629 Z M 32.874 376.536 C 32.223 376.67 31.49 376.694 30.992 376.176 C 30.809 376.596 30.38 376.375 30.049 376.32 C 30.019 376.405 29.992 376.48 29.964 376.566 C 28.864 376.639 28.039 375.52 27.515 374.676 C 26.475 374.114 25.293 373.772 24.23 373.184 C 24.168 374.152 24.38 375.354 23.456 375.978 C 23.409 377.84 26.28 376.198 26.544 377.586 C 26.34 377.608 26.114 377.553 25.95 377.71 C 25.201 378.436 24.342 377.16 23.479 377.687 C 22.319 378.269 22.203 378.746 20.769 378.866 C 20.689 378.746 20.722 378.666 20.789 378.593 C 21.193 378.125 21.222 377.573 21.911 377.373 C 21.201 377.262 20.608 377.653 20.01 377.963 C 19.232 378.28 19.238 377.246 18.042 378.017 C 17.91 377.909 17.973 377.811 18.049 377.728 C 18.353 377.358 18.753 377.303 19.204 377.323 C 16.985 376.09 15.941 378.831 14.916 377.468 C 14.608 377.549 14.492 377.826 14.298 378.021 C 14.131 377.838 14.258 377.616 14.265 377.401 C 14.065 377.307 13.812 377.262 13.871 376.942 C 13.48 376.81 13.206 377.042 12.914 377.262 C 12.651 377.059 13.092 376.762 13.174 376.55 C 13.408 376.143 13.943 376.466 14.214 376.173 C 14.986 375.736 16.061 376.446 16.943 376.326 C 17.623 376.411 18.463 375.716 18.122 375.021 C 17.396 374.095 17.524 372.884 17.508 371.777 C 17.418 371.132 15.865 370.31 15.416 369.614 C 14.861 368.987 14.429 368.261 13.996 367.546 C 12.435 364.532 12.926 360.66 10.959 357.861 C 10.069 358.351 8.911 358.12 8.143 357.462 C 7.729 357.839 7.711 358.332 7.678 358.854 C 6.684 357.864 6.808 355.991 7.603 354.888 C 7.926 354.462 8.311 354.088 8.747 353.778 C 8.845 353.708 8.878 353.638 8.876 353.528 C 9.662 350.004 15.02 350.683 16.714 353.18 C 17.943 354.717 18.314 356.75 19.708 358.177 C 21.583 360.224 23.72 362.027 25.45 364.207 C 27.087 366.199 28.256 368.535 29.276 370.89 C 29.692 371.672 29.696 372.63 30.313 373.298 C 30.617 373.701 32.103 374.798 31.78 375.186 C 31.966 375.589 33.353 376.145 32.872 376.536 L 32.874 376.536 Z M 58.9 364.512 L 55.882 367.522 C 55.079 368.324 54.092 368.917 53.007 369.25 L 52.951 369.266 L 52.931 369.319 C 52.584 370.238 52.043 371.073 51.346 371.765 L 48.327 374.775 C 47.02 376.084 45.244 376.816 43.395 376.81 C 41.545 376.816 39.77 376.084 38.463 374.775 C 35.742 372.06 35.742 367.652 38.463 364.937 L 41.481 361.927 C 42.282 361.126 43.268 360.535 44.352 360.206 L 44.407 360.189 L 44.427 360.136 C 44.776 359.214 45.318 358.378 46.017 357.682 L 49.036 354.672 C 50.343 353.363 52.118 352.631 53.968 352.637 C 55.833 352.637 57.584 353.36 58.9 354.672 C 60.211 355.973 60.946 357.745 60.94 359.592 C 60.94 361.452 60.216 363.199 58.9 364.51 L 58.9 364.512 Z" style="fill: url(&quot;#gradient-2&quot;);"/></g><text x="-4613.4" y="-4558.4" style="white-space: pre; font-size: 15px;">ChatGPT</text><path d="M 5423.18 5457.43 C 5424.09 5454.71 5423.77 5451.73 5422.32 5449.25 C 5420.14 5445.45 5415.75 5443.49 5411.47 5444.41 C 5409.56 5442.27 5406.82 5441.05 5403.95 5441.06 C 5399.57 5441.05 5395.69 5443.87 5394.34 5448.04 C 5391.52 5448.62 5389.1 5450.38 5387.68 5452.87 C 5385.48 5456.66 5385.98 5461.44 5388.91 5464.69 C 5388.01 5467.42 5388.32 5470.4 5389.77 5472.88 C 5391.95 5476.68 5396.34 5478.63 5400.63 5477.71 C 5402.53 5479.86 5405.27 5481.08 5408.14 5481.06 C 5412.52 5481.07 5416.41 5478.25 5417.76 5474.08 C 5420.57 5473.5 5423 5471.74 5424.42 5469.25 C 5426.62 5465.46 5426.12 5460.68 5423.18 5457.43 L 5423.18 5457.43 Z M 5408.15 5478.45 C 5406.39 5478.45 5404.69 5477.84 5403.35 5476.71 C 5403.41 5476.68 5403.51 5476.62 5403.58 5476.58 L 5411.55 5471.98 C 5411.95 5471.75 5412.2 5471.31 5412.2 5470.85 L 5412.2 5459.62 L 5415.57 5461.56 C 5415.6 5461.58 5415.63 5461.61 5415.63 5461.65 L 5415.63 5470.95 C 5415.63 5475.09 5412.28 5478.44 5408.14 5478.45 L 5408.15 5478.45 Z M 5392.04 5471.57 C 5391.16 5470.05 5390.84 5468.27 5391.15 5466.55 C 5391.2 5466.58 5391.31 5466.65 5391.38 5466.69 L 5399.35 5471.29 C 5399.75 5471.52 5400.25 5471.52 5400.65 5471.29 L 5410.38 5465.67 L 5410.38 5469.56 C 5410.38 5469.6 5410.36 5469.64 5410.33 5469.66 L 5402.28 5474.31 C 5398.69 5476.38 5394.11 5475.15 5392.04 5471.57 L 5392.04 5471.57 Z M 5389.94 5454.18 C 5390.82 5452.66 5392.2 5451.5 5393.85 5450.9 C 5393.85 5450.96 5393.84 5451.09 5393.84 5451.17 L 5393.84 5460.37 C 5393.84 5460.84 5394.09 5461.27 5394.5 5461.5 L 5404.22 5467.12 L 5400.85 5469.06 C 5400.82 5469.08 5400.78 5469.09 5400.74 5469.07 L 5392.69 5464.42 C 5389.11 5462.35 5387.88 5457.77 5389.94 5454.18 L 5389.94 5454.18 Z M 5417.6 5460.62 L 5407.88 5455.01 L 5411.24 5453.06 C 5411.28 5453.04 5411.32 5453.04 5411.36 5453.05 L 5419.41 5457.7 C 5424.41 5460.59 5424.41 5467.8 5419.41 5470.69 C 5419.04 5470.9 5418.65 5471.08 5418.25 5471.23 L 5418.25 5461.75 C 5418.26 5461.28 5418.01 5460.85 5417.6 5460.62 L 5417.6 5460.62 Z M 5420.95 5455.58 C 5420.89 5455.54 5420.79 5455.48 5420.72 5455.44 L 5412.75 5450.84 C 5412.35 5450.6 5411.85 5450.6 5411.44 5450.84 L 5401.72 5456.45 L 5401.72 5452.56 C 5401.72 5452.52 5401.74 5452.48 5401.77 5452.46 L 5409.82 5447.81 C 5414.82 5444.93 5421.06 5448.54 5421.06 5454.31 C 5421.06 5454.74 5421.02 5455.16 5420.95 5455.58 L 5420.95 5455.58 Z M 5399.89 5462.51 L 5396.52 5460.56 C 5396.49 5460.55 5396.46 5460.51 5396.46 5460.47 L 5396.46 5451.17 C 5396.46 5445.4 5402.71 5441.8 5407.71 5444.69 C 5408.07 5444.9 5408.42 5445.14 5408.75 5445.41 C 5408.67 5445.46 5408.59 5445.5 5408.51 5445.55 L 5400.55 5450.15 C 5400.14 5450.38 5399.89 5450.81 5399.9 5451.28 L 5399.89 5462.51 Z M 5401.72 5458.56 L 5406.05 5456.06 L 5410.38 5458.56 L 5410.38 5463.56 L 5406.05 5466.06 L 5401.72 5463.56 L 5401.72 5458.56 L 5401.72 5458.56 Z" fill="currentColor"/></g><g transform="matrix(0.987174, 0, 0, 0.897256, -198.630676, -170.131226)" style=""><g style="transform-origin: 511.6px 111.444px;" transform="matrix(1.338233, 0.044831, -0.04477, 1.3364, -1.267431, 2.411126)"><path d="M 607.164 118.744 C 598.465 118.744 596.664 123.237 596.664 125.838 L 596.664 130.744 L 606.664 130.744 L 606.664 131.744 L 591.758 131.744 C 588.457 131.744 584.664 134.346 584.664 141.744 C 584.664 149.143 588.457 151.744 591.758 151.744 L 597.664 151.744 L 597.664 145.744 C 597.664 143.545 599.465 141.744 601.664 141.744 L 613.664 141.744 C 615.363 141.744 616.664 140.444 616.664 138.744 L 616.664 125.838 C 616.664 122.338 613.363 118.744 607.164 118.744 Z M 602.664 123.744 C 603.766 123.744 604.664 124.643 604.664 125.744 C 604.664 126.846 603.766 127.744 602.664 127.744 C 601.562 127.744 600.664 126.846 600.664 125.744 C 600.664 124.643 601.562 123.744 602.664 123.744 Z M 617.664 131.744 L 617.664 138.744 C 617.664 140.944 615.863 142.744 613.664 142.744 L 601.664 142.744 C 599.965 142.744 598.664 144.045 598.664 145.744 L 598.664 157.651 C 598.664 161.151 601.965 164.744 608.164 164.744 C 616.863 164.744 618.664 160.252 618.664 157.651 L 618.664 152.744 L 608.664 152.744 L 608.664 151.744 L 623.57 151.744 C 626.871 151.744 630.664 149.143 630.664 141.744 C 630.664 134.346 626.871 131.744 623.57 131.744 L 617.664 131.744 Z M 612.664 155.744 C 613.766 155.744 614.664 156.643 614.664 157.744 C 614.664 158.846 613.766 159.744 612.664 159.744 C 611.562 159.744 610.664 158.846 610.664 157.744 C 610.664 156.643 611.562 155.744 612.664 155.744 Z" style="fill: rgb(248, 248, 248); fill-rule: nonzero;"/></g></g><g style="" transform="matrix(0.9745, 0, 0, 0.909155, 13.045779, 11.495601)"><g><polygon points="525.706 138.166 513.294 144.505 513.294 81.735 525.706 88.074" style="fill: rgb(255, 255, 255);"/></g><polygon points="497.334 138.166 509.746 144.505 509.746 81.735 497.334 88.074" style="fill: rgb(255, 255, 255);"/><polygon points="509.746 95.1 479.6 110.657 479.6 97.186 509.746 81.629" style="fill: rgb(255, 255, 255);"/><polygon points="513.001 95.443 543.6 111.396 543.6 97.582 513.001 81.629" style="fill: rgb(255, 255, 255);"/><polygon points="520.387 106.666 520.387 118.763 532.8 125.168 532.8 113.074" style="fill: rgb(255, 255, 255);"/></g><text x="-4351.8" y="-4768.1" style="white-space: pre; font-size: 15px;">ChatGPT</text><path d="M 5684.78 5247.74 C 5685.69 5245.02 5685.38 5242.03 5683.92 5239.56 C 5681.74 5235.76 5677.35 5233.8 5673.07 5234.72 C 5671.16 5232.57 5668.42 5231.35 5665.55 5231.37 C 5661.17 5231.36 5657.29 5234.18 5655.94 5238.35 C 5653.13 5238.92 5650.7 5240.69 5649.28 5243.18 C 5647.08 5246.97 5647.58 5251.75 5650.52 5255 C 5649.61 5257.72 5649.92 5260.71 5651.37 5263.18 C 5653.55 5266.98 5657.94 5268.94 5662.23 5268.02 C 5664.13 5270.17 5666.87 5271.39 5669.74 5271.37 C 5674.13 5271.38 5678.01 5268.56 5679.36 5264.39 C 5682.17 5263.81 5684.6 5262.05 5686.02 5259.55 C 5688.22 5255.77 5687.72 5250.99 5684.78 5247.74 L 5684.78 5247.74 Z M 5669.75 5268.76 C 5667.99 5268.76 5666.29 5268.15 5664.95 5267.02 C 5665.01 5266.99 5665.11 5266.93 5665.18 5266.89 L 5673.15 5262.29 C 5673.56 5262.06 5673.81 5261.62 5673.8 5261.15 L 5673.8 5249.93 L 5677.17 5251.87 C 5677.2 5251.89 5677.23 5251.92 5677.23 5251.96 L 5677.23 5261.26 C 5677.23 5265.4 5673.88 5268.75 5669.74 5268.76 L 5669.75 5268.76 Z M 5653.64 5261.88 C 5652.76 5260.36 5652.44 5258.58 5652.75 5256.85 C 5652.81 5256.89 5652.91 5256.95 5652.98 5256.99 L 5660.95 5261.6 C 5661.35 5261.83 5661.85 5261.83 5662.26 5261.6 L 5671.98 5255.98 L 5671.98 5259.87 C 5671.98 5259.91 5671.96 5259.95 5671.93 5259.97 L 5663.88 5264.62 C 5660.29 5266.69 5655.71 5265.46 5653.64 5261.88 L 5653.64 5261.88 Z M 5651.55 5244.49 C 5652.42 5242.97 5653.8 5241.81 5655.45 5241.2 C 5655.45 5241.27 5655.44 5241.39 5655.44 5241.48 L 5655.44 5250.68 C 5655.44 5251.15 5655.69 5251.58 5656.1 5251.81 L 5665.82 5257.43 L 5662.45 5259.37 C 5662.42 5259.39 5662.38 5259.4 5662.34 5259.38 L 5654.29 5254.73 C 5650.71 5252.65 5649.48 5248.07 5651.55 5244.49 L 5651.55 5244.49 Z M 5679.2 5250.93 L 5669.48 5245.31 L 5672.85 5243.37 C 5672.88 5243.35 5672.92 5243.34 5672.96 5243.36 L 5681.01 5248.01 C 5686.01 5250.9 5686.01 5258.11 5681.01 5260.99 C 5680.64 5261.21 5680.25 5261.39 5679.85 5261.54 L 5679.85 5252.06 C 5679.86 5251.59 5679.61 5251.16 5679.2 5250.93 L 5679.2 5250.93 Z M 5682.55 5245.89 C 5682.49 5245.85 5682.39 5245.79 5682.32 5245.74 L 5674.35 5241.14 C 5673.95 5240.91 5673.45 5240.91 5673.04 5241.14 L 5663.32 5246.76 L 5663.32 5242.87 C 5663.32 5242.83 5663.34 5242.79 5663.37 5242.77 L 5671.42 5238.12 C 5676.42 5235.24 5682.66 5238.85 5682.66 5244.62 C 5682.66 5245.04 5682.63 5245.47 5682.55 5245.89 L 5682.55 5245.89 Z M 5661.49 5252.81 L 5658.12 5250.87 C 5658.09 5250.85 5658.06 5250.82 5658.06 5250.78 L 5658.06 5241.48 C 5658.06 5235.71 5664.31 5232.11 5669.31 5235 C 5669.68 5235.21 5670.02 5235.45 5670.35 5235.72 C 5670.27 5235.77 5670.19 5235.81 5670.11 5235.86 L 5662.15 5240.46 C 5661.74 5240.69 5661.49 5241.12 5661.5 5241.59 L 5661.49 5252.81 Z M 5663.32 5248.87 L 5667.65 5246.37 L 5671.98 5248.87 L 5671.98 5253.87 L 5667.65 5256.37 L 5663.32 5253.87 L 5663.32 5248.87 L 5663.32 5248.87 Z" fill="currentColor"/><g transform="matrix(0.304873, 0, 0, 0.302977, 489.288086, 410.722992)" style=""><path d="M 490.29 307.352 C 475.155 298.667 460.337 290.168 444.177 280.9 C 450.919 277.16 456.342 274.066 461.858 271.15 C 463.333 270.37 464.734 271.488 466.034 272.23 C 479.491 279.91 493.182 287.21 506.354 295.35 C 531.414 310.837 529.859 347.92 503.813 361.78 C 502.379 362.543 500.976 363.564 499.121 363.18 C 497.365 361.609 497.936 359.484 497.928 357.572 C 497.875 345.072 497.576 332.562 498.035 320.078 C 498.264 313.866 496.307 309.814 490.29 307.352 L 490.29 307.352 Z M 362.205 364.214 C 358.469 356.402 356.606 348.689 358.405 340.524 C 360.747 339.751 362.015 341.106 363.395 341.886 C 374.99 348.446 386.663 354.88 398.075 361.746 C 402.508 364.413 406.139 364.41 410.546 361.819 C 424.326 353.717 438.279 345.906 452.189 338.026 C 453.859 337.08 455.363 335.507 458.272 336.173 C 458.272 342.159 458.355 348.257 458.223 354.35 C 458.183 356.218 456.438 357.004 454.978 357.84 C 442.262 365.118 429.629 372.547 416.822 379.661 C 396.921 390.715 374.677 384.449 362.205 364.215 L 362.205 364.214 Z" style="fill: rgb(255, 255, 255); fill-opacity: 0.2; paint-order: stroke; stroke: url(&quot;#gradient-3&quot;); stroke-width: 0px;"/><path d="M 362.789 326.902 C 349.591 316.731 344.122 300.561 348.514 285.351 C 352.16 272.725 363.136 261.353 372.53 260.513 C 373.821 262.1 373.293 264.008 373.3 265.774 C 373.353 278.938 373.502 292.106 373.25 305.265 C 373.157 310.055 374.873 312.955 379.03 315.251 C 392.881 322.901 406.592 330.808 420.317 338.684 C 422.141 339.73 424.312 340.406 425.864 343.116 C 420.603 346.765 415.038 349.873 409.234 352.564 C 407.919 353.174 406.625 352.262 405.484 351.604 C 391.237 343.395 377.006 335.161 362.789 326.902 L 362.789 326.902 Z M 435.592 276.118 C 428.073 280.379 420.554 284.639 413.035 288.897 C 413.035 281.422 412.962 275.212 413.091 269.006 C 413.121 267.598 414.543 266.859 415.716 266.194 C 429.626 258.304 443.27 249.892 457.507 242.646 C 483.585 229.373 514.747 250.029 513.352 279.245 C 513.29 280.558 513.373 281.909 512.462 283.067 C 510.169 283.825 508.659 282.147 507.022 281.223 C 495.703 274.837 484.378 268.459 473.194 261.844 C 468.844 259.271 465.031 259.109 460.627 261.784 C 452.517 266.712 444.162 271.239 435.592 276.118 L 435.592 276.118 Z M 471.438 391.977 C 455.075 403.914 431.496 403.661 422.258 391.455 C 424.575 388.781 427.888 387.476 430.838 385.755 C 441.053 379.795 451.321 373.921 461.673 368.203 C 465.308 366.195 466.865 363.52 466.833 359.363 C 466.71 343.033 466.773 326.703 466.825 310.373 C 466.831 308.624 466.262 306.715 468.009 304.666 C 473.751 306.948 478.888 310.58 484.229 313.793 C 485.686 314.669 485.439 316.429 485.438 317.92 C 485.43 333.583 485.7 349.253 485.293 364.906 C 485.009 375.78 479.913 384.656 471.438 391.977 L 471.438 391.977 Z" style="fill: rgb(255, 255, 255); fill-opacity: 0.2; paint-order: stroke; stroke: url(&quot;#gradient-4&quot;); stroke-width: 0px;"/><path d="M 391.596 241.214 C 406.396 217.459 437.956 219.357 448.796 232.054 C 446.439 234.975 442.916 236.188 439.821 237.991 C 429.903 243.769 420.044 249.661 409.961 255.139 C 405.899 257.346 404.289 260.183 404.328 264.689 C 404.464 280.665 404.395 296.642 404.35 312.619 C 404.344 314.566 404.83 316.611 403.28 319.192 C 397.6 316.337 392.02 313.259 386.776 309.583 C 385.403 308.621 385.778 306.846 385.778 305.375 C 385.772 290.065 385.711 274.753 385.846 259.443 C 385.902 252.977 388.195 247.081 391.596 241.213 L 391.596 241.214 Z" style="fill: rgb(255, 255, 255); fill-opacity: 0.2; paint-order: stroke; stroke: url(&quot;#gradient-5&quot;); stroke-width: 0px;"/><path d="M 436.637 337.14 C 428.122 334.703 421.357 329.505 414.062 325.309 C 412.599 324.467 412.797 322.7 412.793 321.207 C 412.779 315.052 412.889 308.895 412.741 302.744 C 412.671 299.87 413.806 298.134 416.283 296.793 C 421.689 293.856 427.036 290.809 432.318 287.653 C 434.573 286.309 436.551 286.255 438.82 287.593 C 444.262 290.803 449.744 293.95 455.302 296.954 C 457.699 298.25 458.435 300.068 458.395 302.642 C 458.3 308.795 458.245 314.954 458.43 321.103 C 458.518 324.049 457.216 325.666 454.798 326.985 C 448.816 330.249 442.914 333.661 436.638 337.14 L 436.637 337.14 Z" style="fill: rgb(255, 255, 255); fill-opacity: 0.2; paint-order: stroke; stroke: url(&quot;#gradient-6&quot;); stroke-width: 0px;"/></g></svg>